<svg width="100" height="200" xmlns="http://www.w3.org/2000/svg">
 <title>5 - dark green column</title>

 <g>
  <title>Layer 1</title>
  <g stroke="null" id="svg_26">
   <g stroke="null" id="svg_27">
    <rect stroke="#231F20" id="svg_28" height="8.01438" width="100" stroke-miterlimit="10" stroke-width="0.5" fill="#0b5b95" y="192.64155" x="0.3924"/>
    <path stroke="#231F20" id="svg_29" d="m100.3924,189.30222c0,1.84466 -2.866,3.33932 -6.39899,3.33932l-87.20102,0c-3.53299,0 -6.39899,-1.49466 -6.39899,-3.33932l0,0c0,-1.84466 2.866,-3.33932 6.39899,-3.33932l87.20102,0c3.53299,0 6.39899,1.49471 6.39899,3.33932l0,0z" stroke-miterlimit="10" stroke-width="0.5" fill="#0b5b95"/>
    <rect stroke="#231F20" id="svg_30" height="3.33932" width="90" stroke-miterlimit="10" stroke-width="0.5" fill="#0b5b95" y="182.62358" x="5.3924"/>
    <rect stroke="#231F20" id="svg_31" height="3.33932" width="90" stroke-miterlimit="10" stroke-width="0.5" fill="#0b5b95" y="169.26629" x="5.3924"/>
    <path stroke="#231F20" id="svg_32" d="m95.3924,172.60561l-90,0c0,0 3.996,-0.05611 3.996,4.98027c0,5.0377 -3.99601,5.0377 -3.99601,5.0377l90,0c0,0 -4.00399,0.05474 -4.00399,-4.98161s4.00399,-5.03636 4.00399,-5.03636l0.00001,0z" stroke-miterlimit="10" stroke-width="0.5" fill="#0b5b95"/>
   </g>
   <g stroke="null" id="svg_33">
    <path stroke="#231F20" id="svg_34" d="m100.3924,10.92829c0,1.84464 -2.866,3.33932 -6.39899,3.33932l-87.20102,0c-3.53299,0 -6.39899,-1.49469 -6.39899,-3.33932l0,0c0,-1.84463 2.866,-3.33998 6.39899,-3.33998l87.20102,0c3.53299,0 6.39899,1.49534 6.39899,3.33998l0,0z" stroke-miterlimit="10" stroke-width="0.5" fill="#0b5b95"/>
    <rect stroke="#231F20" id="svg_35" height="3.33799" width="90" stroke-miterlimit="10" stroke-width="0.5" fill="#0b5b95" y="27.6249" x="5.3924"/>
    <rect stroke="#231F20" id="svg_36" height="3.33932" width="90" stroke-miterlimit="10" stroke-width="0.5" fill="#0b5b95" y="14.26761" x="5.3924"/>
    <path stroke="#231F20" id="svg_37" d="m95.3924,17.60693l-90,0c0,0 3.99499,-0.05609 3.99499,4.98027c0,5.0377 -3.99499,5.0377 -3.99499,5.0377l90,0c0,0 -4.00501,0.05343 -4.00501,-4.9816c0,-5.03637 4.00501,-5.03637 4.00501,-5.03637z" stroke-miterlimit="10" stroke-width="0.5" fill="#0b5b95"/>
    <rect stroke="#231F20" id="svg_38" height="8.01438" width="100" stroke-miterlimit="10" stroke-width="0.5" fill="#0b5b95" y="-0.42608" x="0.3924"/>
   </g>
   <g stroke="null" id="svg_39">
    <g stroke="null" id="svg_40">
     <path stroke="null" id="svg_41" d="m45.3924,163.56072c0,1.84464 2.238,3.33932 5,3.33932s5,-1.49468 5,-3.33932l0,-126.89427c0,-1.84464 -2.23801,-3.33932 -5,-3.33932s-5,1.49469 -5,3.33932l0,126.89427z" fill="#0b5b95"/>
     <path stroke="#231F20" id="svg_42" d="m45.3924,163.56072c0,1.84464 2.238,3.33932 5,3.33932s5,-1.49468 5,-3.33932l0,-126.89427c0,-1.84464 -2.23801,-3.33932 -5,-3.33932s-5,1.49469 -5,3.33932l0,126.89427z" stroke-miterlimit="10" stroke-width="0.5" fill="#0b5b95"/>
    </g>
    <g stroke="null" id="svg_43">
     <path stroke="null" id="svg_44" d="m31.05939,164.22858c0,1.47531 1.79098,2.67146 4,2.67146s4,-1.19615 4,-2.67146l0,-128.23c0,-1.47532 -1.79102,-2.67146 -4,-2.67146s-4,1.19614 -4,2.67146l0,128.23z" fill="#0b5b95"/>
     <path stroke="#231F20" id="svg_45" d="m31.05939,164.22858c0,1.47531 1.79098,2.67146 4,2.67146s4,-1.19615 4,-2.67146l0,-128.23c0,-1.47532 -1.79102,-2.67146 -4,-2.67146s-4,1.19614 -4,2.67146l0,128.23z" stroke-miterlimit="10" stroke-width="0.5" fill="#0b5b95"/>
    </g>
    <g stroke="null" id="svg_46">
     <path stroke="null" id="svg_47" d="m21.05939,164.89645c0,1.10664 1.34298,2.00359 3,2.00359s3,-0.89695 3,-2.00359l0,-129.56573c0,-1.10666 -1.34299,-2.00359 -3,-2.00359s-3,0.89694 -3,2.00359l0,129.56573z" fill="#0b5b95"/>
     <path stroke="#231F20" id="svg_48" d="m21.05939,164.89645c0,1.10664 1.34298,2.00359 3,2.00359s3,-0.89695 3,-2.00359l0,-129.56573c0,-1.10666 -1.34299,-2.00359 -3,-2.00359s-3,0.89694 -3,2.00359l0,129.56573z" stroke-miterlimit="10" stroke-width="0.5" fill="#0b5b95"/>
    </g>
    <g stroke="null" id="svg_49">
     <path stroke="null" id="svg_50" d="m13.3924,165.56431c0,0.73733 0.89599,1.33573 2,1.33573s2,-0.5984 2,-1.33573l0,-130.90146c0,-0.73732 -0.896,-1.33573 -2,-1.33573s-2,0.59841 -2,1.33573l0,130.90146z" fill="#0b5b95"/>
     <path stroke="#231F20" id="svg_51" d="m13.3924,165.56431c0,0.73733 0.89599,1.33573 2,1.33573s2,-0.5984 2,-1.33573l0,-130.90146c0,-0.73732 -0.896,-1.33573 -2,-1.33573s-2,0.59841 -2,1.33573l0,130.90146z" stroke-miterlimit="10" stroke-width="0.5" fill="#0b5b95"/>
    </g>
    <g stroke="null" id="svg_52">
     <path stroke="null" id="svg_53" d="m8.3924,166.23218c0,0.36934 0.44699,0.66786 1,0.66786s1,-0.29853 1,-0.66786l0,-132.23719c0,-0.36933 -0.447,-0.66786 -1,-0.66786s-1,0.29854 -1,0.66786l0,132.23719z" fill="#0b5b95"/>
     <path stroke="#231F20" id="svg_54" d="m8.3924,166.23218c0,0.36934 0.44699,0.66786 1,0.66786s1,-0.29853 1,-0.66786l0,-132.23719c0,-0.36933 -0.447,-0.66786 -1,-0.66786s-1,0.29854 -1,0.66786l0,132.23719z" stroke-miterlimit="10" stroke-width="0.5" fill="#0b5b95"/>
    </g>
    <line stroke="#231F20" id="svg_55" y2="169.26629" x2="7.3924" y1="30.96289" x1="7.3924" stroke-miterlimit="10" stroke-width="0.5" fill="#0b5b95"/>
    <g stroke="null" id="svg_56">
     <path stroke="null" id="svg_57" d="m61.7254,164.22858c0,1.47531 1.79102,2.67146 4,2.67146s4,-1.19615 4,-2.67146l0,-128.23c0,-1.47532 -1.79098,-2.67146 -4,-2.67146s-4,1.19614 -4,2.67146l0,128.23z" fill="#0b5b95"/>
     <path stroke="#231F20" id="svg_58" d="m61.7254,164.22858c0,1.47531 1.79102,2.67146 4,2.67146s4,-1.19615 4,-2.67146l0,-128.23c0,-1.47532 -1.79098,-2.67146 -4,-2.67146s-4,1.19614 -4,2.67146l0,128.23z" stroke-miterlimit="10" stroke-width="0.5" fill="#0b5b95"/>
    </g>
    <g stroke="null" id="svg_59">
     <path stroke="null" id="svg_60" d="m73.7254,164.89645c0,1.10664 1.34299,2.00359 3,2.00359s3,-0.89695 3,-2.00359l0,-129.56573c0,-1.10666 -1.34298,-2.00359 -3,-2.00359s-3,0.89694 -3,2.00359l0,129.56573z" fill="#0b5b95"/>
     <path stroke="#231F20" id="svg_61" d="m73.7254,164.89645c0,1.10664 1.34299,2.00359 3,2.00359s3,-0.89695 3,-2.00359l0,-129.56573c0,-1.10666 -1.34298,-2.00359 -3,-2.00359s-3,0.89694 -3,2.00359l0,129.56573z" stroke-miterlimit="10" stroke-width="0.5" fill="#0b5b95"/>
    </g>
    <g stroke="null" id="svg_62">
     <path stroke="null" id="svg_63" d="m83.3924,165.56431c0,0.73733 0.89599,1.33573 2,1.33573s2,-0.5984 2,-1.33573l0,-130.90146c0,-0.73732 -0.896,-1.33573 -2,-1.33573s-2,0.59841 -2,1.33573l0,130.90146z" fill="#0b5b95"/>
     <path stroke="#231F20" id="svg_64" d="m83.3924,165.56431c0,0.73733 0.89599,1.33573 2,1.33573s2,-0.5984 2,-1.33573l0,-130.90146c0,-0.73732 -0.896,-1.33573 -2,-1.33573s-2,0.59841 -2,1.33573l0,130.90146z" stroke-miterlimit="10" stroke-width="0.5" fill="#0b5b95"/>
    </g>
    <g stroke="null" id="svg_65">
     <path stroke="null" id="svg_66" d="m90.3924,166.23218c0,0.36934 0.44699,0.66786 1,0.66786s1,-0.29853 1,-0.66786l0,-132.23719c0,-0.36933 -0.447,-0.66786 -1,-0.66786s-1,0.29854 -1,0.66786l0,132.23719z" fill="#0b5b95"/>
     <path stroke="#231F20" id="svg_67" d="m90.3924,166.23218c0,0.36934 0.44699,0.66786 1,0.66786s1,-0.29853 1,-0.66786l0,-132.23719c0,-0.36933 -0.447,-0.66786 -1,-0.66786s-1,0.29854 -1,0.66786l0,132.23719z" stroke-miterlimit="10" stroke-width="0.5" fill="#0b5b95"/>
    </g>
    <line stroke="#231F20" id="svg_68" y2="169.26629" x2="93.3924" y1="30.96289" x1="93.3924" stroke-miterlimit="10" stroke-width="0.5" fill="#0b5b95"/>
   </g>
  </g>
 </g>
</svg>