<svg width="100" height="125" xmlns="http://www.w3.org/2000/svg">
 <title>5 - dark green column</title>

 <g>
  <title>Layer 1</title>
  <g stroke="null" id="svg_26">
   <g stroke="null" id="svg_27">
    <rect stroke="#231F20" id="svg_28" height="4.9853" width="100" stroke-miterlimit="10" stroke-width="0.5" fill="#0b5b95" y="119.67063" x="0.3924"/>
    <path stroke="#231F20" id="svg_29" d="m100.3924,117.59341c0,1.14746 -2.866,2.07721 -6.39899,2.07721l-87.20102,0c-3.53299,0 -6.39899,-0.92975 -6.39899,-2.07721l0,0c0,-1.14746 2.866,-2.07721 6.39899,-2.07721l87.20102,0c3.53299,0 6.39899,0.92978 6.39899,2.07721l0,0z" stroke-miterlimit="10" stroke-width="0.5" fill="#0b5b95"/>
    <rect stroke="#231F20" id="svg_30" height="2.07721" width="90" stroke-miterlimit="10" stroke-width="0.5" fill="#0b5b95" y="113.439" x="5.3924"/>
    <rect stroke="#231F20" id="svg_31" height="2.07721" width="90" stroke-miterlimit="10" stroke-width="0.5" fill="#0b5b95" y="105.13017" x="5.3924"/>
    <path stroke="#231F20" id="svg_32" d="m95.3924,107.20737l-90,0c0,0 3.996,-0.0349 3.996,3.09795c0,3.13368 -3.99601,3.13368 -3.99601,3.13368l90,0c0,0 -4.00399,0.03405 -4.00399,-3.09878s4.00399,-3.13284 4.00399,-3.13284l0.00001,0z" stroke-miterlimit="10" stroke-width="0.5" fill="#0b5b95"/>
   </g>
   <g stroke="null" id="svg_33">
    <path stroke="#231F20" id="svg_34" d="m100.3924,6.63684c0,1.14745 -2.866,2.07721 -6.39899,2.07721l-87.20102,0c-3.53299,0 -6.39899,-0.92976 -6.39899,-2.07721l0,0c0,-1.14744 2.866,-2.07762 6.39899,-2.07762l87.20102,0c3.53299,0 6.39899,0.93017 6.39899,2.07762l0,0z" stroke-miterlimit="10" stroke-width="0.5" fill="#0b5b95"/>
    <rect stroke="#231F20" id="svg_35" height="2.07638" width="90" stroke-miterlimit="10" stroke-width="0.5" fill="#0b5b95" y="17.02289" x="5.3924"/>
    <rect stroke="#231F20" id="svg_36" height="2.07721" width="90" stroke-miterlimit="10" stroke-width="0.5" fill="#0b5b95" y="8.71405" x="5.3924"/>
    <path stroke="#231F20" id="svg_37" d="m95.3924,10.79126l-90,0c0,0 3.99499,-0.03489 3.99499,3.09795c0,3.13368 -3.99499,3.13368 -3.99499,3.13368l90,0c0,0 -4.00501,0.03324 -4.00501,-3.09878c0,-3.13285 4.00501,-3.13285 4.00501,-3.13285z" stroke-miterlimit="10" stroke-width="0.5" fill="#0b5b95"/>
    <rect stroke="#231F20" id="svg_38" height="4.9853" width="100" stroke-miterlimit="10" stroke-width="0.5" fill="#0b5b95" y="-0.42608" x="0.3924"/>
   </g>
   <g stroke="null" id="svg_39">
    <g stroke="null" id="svg_40">
     <path stroke="null" id="svg_41" d="m45.3924,101.58105c0,1.14745 2.238,2.07721 5,2.07721s5,-0.92976 5,-2.07721l0,-78.93392c0,-1.14745 -2.23801,-2.07721 -5,-2.07721s-5,0.92976 -5,2.07721l0,78.93392z" fill="#0b5b95"/>
     <path stroke="#231F20" id="svg_42" d="m45.3924,101.58105c0,1.14745 2.238,2.07721 5,2.07721s5,-0.92976 5,-2.07721l0,-78.93392c0,-1.14745 -2.23801,-2.07721 -5,-2.07721s-5,0.92976 -5,2.07721l0,78.93392z" stroke-miterlimit="10" stroke-width="0.5" fill="#0b5b95"/>
    </g>
    <g stroke="null" id="svg_43">
     <path stroke="null" id="svg_44" d="m31.05939,101.99649c0,0.91771 1.79098,1.66177 4,1.66177s4,-0.74406 4,-1.66177l0,-79.7648c0,-0.91771 -1.79102,-1.66177 -4,-1.66177s-4,0.74405 -4,1.66177l0,79.7648z" fill="#0b5b95"/>
     <path stroke="#231F20" id="svg_45" d="m31.05939,101.99649c0,0.91771 1.79098,1.66177 4,1.66177s4,-0.74406 4,-1.66177l0,-79.7648c0,-0.91771 -1.79102,-1.66177 -4,-1.66177s-4,0.74405 -4,1.66177l0,79.7648z" stroke-miterlimit="10" stroke-width="0.5" fill="#0b5b95"/>
    </g>
    <g stroke="null" id="svg_46">
     <path stroke="null" id="svg_47" d="m21.05939,102.41193c0,0.68838 1.34298,1.24632 3,1.24632s3,-0.55794 3,-1.24632l0,-80.59568c0,-0.68839 -1.34299,-1.24632 -3,-1.24632s-3,0.55793 -3,1.24632l0,80.59568z" fill="#0b5b95"/>
     <path stroke="#231F20" id="svg_48" d="m21.05939,102.41193c0,0.68838 1.34298,1.24632 3,1.24632s3,-0.55794 3,-1.24632l0,-80.59568c0,-0.68839 -1.34299,-1.24632 -3,-1.24632s-3,0.55793 -3,1.24632l0,80.59568z" stroke-miterlimit="10" stroke-width="0.5" fill="#0b5b95"/>
    </g>
    <g stroke="null" id="svg_49">
     <path stroke="null" id="svg_50" d="m13.3924,102.82737c0,0.45865 0.89599,0.83088 2,0.83088s2,-0.37223 2,-0.83088l0,-81.42657c0,-0.45865 -0.896,-0.83088 -2,-0.83088s-2,0.37224 -2,0.83088l0,81.42657z" fill="#0b5b95"/>
     <path stroke="#231F20" id="svg_51" d="m13.3924,102.82737c0,0.45865 0.89599,0.83088 2,0.83088s2,-0.37223 2,-0.83088l0,-81.42657c0,-0.45865 -0.896,-0.83088 -2,-0.83088s-2,0.37224 -2,0.83088l0,81.42657z" stroke-miterlimit="10" stroke-width="0.5" fill="#0b5b95"/>
    </g>
    <g stroke="null" id="svg_52">
     <path stroke="null" id="svg_53" d="m8.3924,103.24281c0,0.22974 0.44699,0.41544 1,0.41544s1,-0.1857 1,-0.41544l0,-82.25745c0,-0.22974 -0.447,-0.41544 -1,-0.41544s-1,0.1857 -1,0.41544l0,82.25745z" fill="#0b5b95"/>
     <path stroke="#231F20" id="svg_54" d="m8.3924,103.24281c0,0.22974 0.44699,0.41544 1,0.41544s1,-0.1857 1,-0.41544l0,-82.25745c0,-0.22974 -0.447,-0.41544 -1,-0.41544s-1,0.1857 -1,0.41544l0,82.25745z" stroke-miterlimit="10" stroke-width="0.5" fill="#0b5b95"/>
    </g>
    <line stroke="#231F20" id="svg_55" y2="105.13017" x2="7.3924" y1="19.09926" x1="7.3924" stroke-miterlimit="10" stroke-width="0.5" fill="#0b5b95"/>
    <g stroke="null" id="svg_56">
     <path stroke="null" id="svg_57" d="m61.7254,101.99649c0,0.91771 1.79102,1.66177 4,1.66177s4,-0.74406 4,-1.66177l0,-79.7648c0,-0.91771 -1.79098,-1.66177 -4,-1.66177s-4,0.74405 -4,1.66177l0,79.7648z" fill="#0b5b95"/>
     <path stroke="#231F20" id="svg_58" d="m61.7254,101.99649c0,0.91771 1.79102,1.66177 4,1.66177s4,-0.74406 4,-1.66177l0,-79.7648c0,-0.91771 -1.79098,-1.66177 -4,-1.66177s-4,0.74405 -4,1.66177l0,79.7648z" stroke-miterlimit="10" stroke-width="0.5" fill="#0b5b95"/>
    </g>
    <g stroke="null" id="svg_59">
     <path stroke="null" id="svg_60" d="m73.7254,102.41193c0,0.68838 1.34299,1.24632 3,1.24632s3,-0.55794 3,-1.24632l0,-80.59568c0,-0.68839 -1.34298,-1.24632 -3,-1.24632s-3,0.55793 -3,1.24632l0,80.59568z" fill="#0b5b95"/>
     <path stroke="#231F20" id="svg_61" d="m73.7254,102.41193c0,0.68838 1.34299,1.24632 3,1.24632s3,-0.55794 3,-1.24632l0,-80.59568c0,-0.68839 -1.34298,-1.24632 -3,-1.24632s-3,0.55793 -3,1.24632l0,80.59568z" stroke-miterlimit="10" stroke-width="0.5" fill="#0b5b95"/>
    </g>
    <g stroke="null" id="svg_62">
     <path stroke="null" id="svg_63" d="m83.3924,102.82737c0,0.45865 0.89599,0.83088 2,0.83088s2,-0.37223 2,-0.83088l0,-81.42657c0,-0.45865 -0.896,-0.83088 -2,-0.83088s-2,0.37224 -2,0.83088l0,81.42657z" fill="#0b5b95"/>
     <path stroke="#231F20" id="svg_64" d="m83.3924,102.82737c0,0.45865 0.89599,0.83088 2,0.83088s2,-0.37223 2,-0.83088l0,-81.42657c0,-0.45865 -0.896,-0.83088 -2,-0.83088s-2,0.37224 -2,0.83088l0,81.42657z" stroke-miterlimit="10" stroke-width="0.5" fill="#0b5b95"/>
    </g>
    <g stroke="null" id="svg_65">
     <path stroke="null" id="svg_66" d="m90.3924,103.24281c0,0.22974 0.44699,0.41544 1,0.41544s1,-0.1857 1,-0.41544l0,-82.25745c0,-0.22974 -0.447,-0.41544 -1,-0.41544s-1,0.1857 -1,0.41544l0,82.25745z" fill="#0b5b95"/>
     <path stroke="#231F20" id="svg_67" d="m90.3924,103.24281c0,0.22974 0.44699,0.41544 1,0.41544s1,-0.1857 1,-0.41544l0,-82.25745c0,-0.22974 -0.447,-0.41544 -1,-0.41544s-1,0.1857 -1,0.41544l0,82.25745z" stroke-miterlimit="10" stroke-width="0.5" fill="#0b5b95"/>
    </g>
    <line stroke="#231F20" id="svg_68" y2="105.13017" x2="93.3924" y1="19.09926" x1="93.3924" stroke-miterlimit="10" stroke-width="0.5" fill="#0b5b95"/>
   </g>
  </g>
 </g>
</svg>