<?xml version="1.0"?><svg width="640" height="480.00000000000006" xmlns="http://www.w3.org/2000/svg">
 <title>5 - dark green column</title>
 <g>
  <title>Layer 1</title>
  <g id="svg_26">
   <g id="svg_27">
    <rect x="250.392403" y="373.655922" fill="#0b5b95" stroke="#231F20" stroke-width="0.5" stroke-miterlimit="10" width="100" height="12" id="svg_28"/>
    <path fill="#0b5b95" stroke="#231F20" stroke-width="0.5" stroke-miterlimit="10" d="m350.392395,368.655914c0,2.762024 -2.865997,5 -6.398987,5l-87.201019,0c-3.53299,0 -6.398987,-2.237976 -6.398987,-5l0,0c0,-2.762024 2.865997,-5 6.398987,-5l87.201019,0c3.53299,0 6.398987,2.238037 6.398987,5l0,0z" id="svg_29"/>
    <rect x="255.392403" y="358.655922" fill="#0b5b95" stroke="#231F20" stroke-width="0.5" stroke-miterlimit="10" width="90" height="5" id="svg_30"/>
    <rect x="255.392403" y="338.655922" fill="#0b5b95" stroke="#231F20" stroke-width="0.5" stroke-miterlimit="10" width="90" height="5" id="svg_31"/>
    <path fill="#0b5b95" stroke="#231F20" stroke-width="0.5" stroke-miterlimit="10" d="m345.392395,343.655914l-90,0c0,0 3.996002,-0.084015 3.996002,7.457001c0,7.542999 -3.996002,7.542999 -3.996002,7.542999l90,0c0,0 -4.003998,0.08197 -4.003998,-7.459015s4.003998,-7.540985 4.003998,-7.540985z" id="svg_32"/>
   </g>
   <g id="svg_33">
    <path fill="#0b5b95" stroke="#231F20" stroke-width="0.5" stroke-miterlimit="10" d="m350.392395,101.574921c0,2.761993 -2.865997,5 -6.398987,5l-87.201019,0c-3.53299,0 -6.398987,-2.238007 -6.398987,-5l0,0c0,-2.761986 2.865997,-5.000992 6.398987,-5.000992l87.201019,0c3.53299,0 6.398987,2.238991 6.398987,5.000992l0,0z" id="svg_34"/>
    <rect x="255.392403" y="126.574922" fill="#0b5b95" stroke="#231F20" stroke-width="0.5" stroke-miterlimit="10" width="90" height="4.998" id="svg_35"/>
    <rect x="255.392403" y="106.574922" fill="#0b5b95" stroke="#231F20" stroke-width="0.5" stroke-miterlimit="10" width="90" height="5" id="svg_36"/>
    <path fill="#0b5b95" stroke="#231F20" stroke-width="0.5" stroke-miterlimit="10" d="m345.392395,111.574921l-90,0c0,0 3.994995,-0.083992 3.994995,7.457001c0,7.542999 -3.994995,7.542999 -3.994995,7.542999l90,0c0,0 -4.005005,0.079994 -4.005005,-7.458992c0,-7.541008 4.005005,-7.541008 4.005005,-7.541008z" id="svg_37"/>
    <rect x="250.392403" y="84.573922" fill="#0b5b95" stroke="#231F20" stroke-width="0.5" stroke-miterlimit="10" width="100" height="12" id="svg_38"/>
   </g>
   <g id="svg_39">
    <g id="svg_40">
     <path fill="#0b5b95" d="m295.392395,330.112915c0,2.761993 2.238007,5 5,5s5,-2.238007 5,-5l0,-190c0,-2.761993 -2.238007,-5 -5,-5s-5,2.238007 -5,5l0,190z" id="svg_41"/>
     <path fill="#0b5b95" stroke="#231F20" stroke-width="0.5" stroke-miterlimit="10" d="m295.392395,330.112915c0,2.761993 2.238007,5 5,5s5,-2.238007 5,-5l0,-190c0,-2.761993 -2.238007,-5 -5,-5s-5,2.238007 -5,5l0,190z" id="svg_42"/>
    </g>
    <g id="svg_43">
     <path fill="#0b5b95" d="m281.059387,331.112915c0,2.208984 1.790985,4 4,4s4,-1.791016 4,-4l0,-192c0,-2.209015 -1.791016,-4 -4,-4s-4,1.790985 -4,4l0,192z" id="svg_44"/>
     <path fill="#0b5b95" stroke="#231F20" stroke-width="0.5" stroke-miterlimit="10" d="m281.059387,331.112915c0,2.208984 1.790985,4 4,4s4,-1.791016 4,-4l0,-192c0,-2.209015 -1.791016,-4 -4,-4s-4,1.790985 -4,4l0,192z" id="svg_45"/>
    </g>
    <g id="svg_46">
     <path fill="#0b5b95" d="m271.059387,332.112915c0,1.656982 1.342987,3 3,3s3,-1.343018 3,-3l0,-194c0,-1.657013 -1.342987,-3 -3,-3s-3,1.342987 -3,3l0,194z" id="svg_47"/>
     <path fill="#0b5b95" stroke="#231F20" stroke-width="0.5" stroke-miterlimit="10" d="m271.059387,332.112915c0,1.656982 1.342987,3 3,3s3,-1.343018 3,-3l0,-194c0,-1.657013 -1.342987,-3 -3,-3s-3,1.342987 -3,3l0,194z" id="svg_48"/>
    </g>
    <g id="svg_49">
     <path fill="#0b5b95" d="m263.392395,333.112915c0,1.104004 0.895996,2 2,2s2,-0.895996 2,-2l0,-196c0,-1.104004 -0.895996,-2 -2,-2s-2,0.895996 -2,2l0,196z" id="svg_50"/>
     <path fill="#0b5b95" stroke="#231F20" stroke-width="0.5" stroke-miterlimit="10" d="m263.392395,333.112915c0,1.104004 0.895996,2 2,2s2,-0.895996 2,-2l0,-196c0,-1.104004 -0.895996,-2 -2,-2s-2,0.895996 -2,2l0,196z" id="svg_51"/>
    </g>
    <g id="svg_52">
     <path fill="#0b5b95" d="m258.392395,334.112915c0,0.553009 0.446991,1 1,1s1,-0.446991 1,-1l0,-198c0,-0.553009 -0.446991,-1 -1,-1s-1,0.446991 -1,1l0,198z" id="svg_53"/>
     <path fill="#0b5b95" stroke="#231F20" stroke-width="0.5" stroke-miterlimit="10" d="m258.392395,334.112915c0,0.553009 0.446991,1 1,1s1,-0.446991 1,-1l0,-198c0,-0.553009 -0.446991,-1 -1,-1s-1,0.446991 -1,1l0,198z" id="svg_54"/>
    </g>
    <line fill="#0b5b95" stroke="#231F20" stroke-width="0.5" stroke-miterlimit="10" x1="257.392403" y1="131.572922" x2="257.392403" y2="338.655922" id="svg_55"/>
    <g id="svg_56">
     <path fill="#0b5b95" d="m311.725403,331.112915c0,2.208984 1.791016,4 4,4s4,-1.791016 4,-4l0,-192c0,-2.209015 -1.790985,-4 -4,-4s-4,1.790985 -4,4l0,192z" id="svg_57"/>
     <path fill="#0b5b95" stroke="#231F20" stroke-width="0.5" stroke-miterlimit="10" d="m311.725403,331.112915c0,2.208984 1.791016,4 4,4s4,-1.791016 4,-4l0,-192c0,-2.209015 -1.790985,-4 -4,-4s-4,1.790985 -4,4l0,192z" id="svg_58"/>
    </g>
    <g id="svg_59">
     <path fill="#0b5b95" d="m323.725403,332.112915c0,1.656982 1.342987,3 3,3s3,-1.343018 3,-3l0,-194c0,-1.657013 -1.342987,-3 -3,-3s-3,1.342987 -3,3l0,194z" id="svg_60"/>
     <path fill="#0b5b95" stroke="#231F20" stroke-width="0.5" stroke-miterlimit="10" d="m323.725403,332.112915c0,1.656982 1.342987,3 3,3s3,-1.343018 3,-3l0,-194c0,-1.657013 -1.342987,-3 -3,-3s-3,1.342987 -3,3l0,194z" id="svg_61"/>
    </g>
    <g id="svg_62">
     <path fill="#0b5b95" d="m333.392395,333.112915c0,1.104004 0.895996,2 2,2s2,-0.895996 2,-2l0,-196c0,-1.104004 -0.895996,-2 -2,-2s-2,0.895996 -2,2l0,196z" id="svg_63"/>
     <path fill="#0b5b95" stroke="#231F20" stroke-width="0.5" stroke-miterlimit="10" d="m333.392395,333.112915c0,1.104004 0.895996,2 2,2s2,-0.895996 2,-2l0,-196c0,-1.104004 -0.895996,-2 -2,-2s-2,0.895996 -2,2l0,196z" id="svg_64"/>
    </g>
    <g id="svg_65">
     <path fill="#0b5b95" d="m340.392395,334.112915c0,0.553009 0.446991,1 1,1s1,-0.446991 1,-1l0,-198c0,-0.553009 -0.446991,-1 -1,-1s-1,0.446991 -1,1l0,198z" id="svg_66"/>
     <path fill="#0b5b95" stroke="#231F20" stroke-width="0.5" stroke-miterlimit="10" d="m340.392395,334.112915c0,0.553009 0.446991,1 1,1s1,-0.446991 1,-1l0,-198c0,-0.553009 -0.446991,-1 -1,-1s-1,0.446991 -1,1l0,198z" id="svg_67"/>
    </g>
    <line fill="#0b5b95" stroke="#231F20" stroke-width="0.5" stroke-miterlimit="10" x1="343.392403" y1="131.572922" x2="343.392403" y2="338.655922" id="svg_68"/>
   </g>
  </g>
 </g>
</svg>