<svg width="100" height="301" xmlns="http://www.w3.org/2000/svg">
 <title>5 - dark green column</title>

 <g>
  <title>Layer 1</title>
  <g id="svg_26">
   <g id="svg_27">
    <rect id="svg_28" height="12" width="100" stroke-miterlimit="10" stroke-width="0.5" stroke="#231F20" fill="#0b5b95" y="288.65592" x="0.3924"/>
    <path id="svg_29" d="m100.3924,283.65591c0,2.76203 -2.866,5 -6.39899,5l-87.20102,0c-3.53299,0 -6.39899,-2.23797 -6.39899,-5l0,0c0,-2.76202 2.866,-5 6.39899,-5l87.20102,0c3.53299,0 6.39899,2.23804 6.39899,5l0,0z" stroke-miterlimit="10" stroke-width="0.5" stroke="#231F20" fill="#0b5b95"/>
    <rect id="svg_30" height="5" width="90" stroke-miterlimit="10" stroke-width="0.5" stroke="#231F20" fill="#0b5b95" y="273.65592" x="5.3924"/>
    <rect id="svg_31" height="5" width="90" stroke-miterlimit="10" stroke-width="0.5" stroke="#231F20" fill="#0b5b95" y="253.65592" x="5.3924"/>
    <path id="svg_32" d="m95.3924,258.65591l-90,0c0,0 3.996,-0.08401 3.996,7.457c0,7.543 -3.99601,7.543 -3.99601,7.543l90,0c0,0 -4.00399,0.08197 -4.00399,-7.45901s4.00399,-7.54099 4.00399,-7.54099l0.00001,0z" stroke-miterlimit="10" stroke-width="0.5" stroke="#231F20" fill="#0b5b95"/>
   </g>
   <g id="svg_33">
    <path id="svg_34" d="m100.3924,16.57492c0,2.76199 -2.866,5 -6.39899,5l-87.20102,0c-3.53299,0 -6.39899,-2.23801 -6.39899,-5l0,0c0,-2.76198 2.866,-5.00099 6.39899,-5.00099l87.20102,0c3.53299,0 6.39899,2.23899 6.39899,5.00099l0,0z" stroke-miterlimit="10" stroke-width="0.5" stroke="#231F20" fill="#0b5b95"/>
    <rect id="svg_35" height="4.998" width="90" stroke-miterlimit="10" stroke-width="0.5" stroke="#231F20" fill="#0b5b95" y="41.57492" x="5.3924"/>
    <rect id="svg_36" height="5" width="90" stroke-miterlimit="10" stroke-width="0.5" stroke="#231F20" fill="#0b5b95" y="21.57492" x="5.3924"/>
    <path id="svg_37" d="m95.3924,26.57492l-90,0c0,0 3.99499,-0.08399 3.99499,7.457c0,7.543 -3.99499,7.543 -3.99499,7.543l90,0c0,0 -4.00501,0.08 -4.00501,-7.45899c0,-7.54101 4.00501,-7.54101 4.00501,-7.54101z" stroke-miterlimit="10" stroke-width="0.5" stroke="#231F20" fill="#0b5b95"/>
    <rect id="svg_38" height="12" width="100" stroke-miterlimit="10" stroke-width="0.5" stroke="#231F20" fill="#0b5b95" y="-0.42608" x="0.3924"/>
   </g>
   <g id="svg_39">
    <g id="svg_40">
     <path id="svg_41" d="m45.3924,245.11291c0,2.762 2.238,5 5,5s5,-2.238 5,-5l0,-190c0,-2.76199 -2.23801,-5 -5,-5s-5,2.23801 -5,5l0,190z" fill="#0b5b95"/>
     <path id="svg_42" d="m45.3924,245.11291c0,2.762 2.238,5 5,5s5,-2.238 5,-5l0,-190c0,-2.76199 -2.23801,-5 -5,-5s-5,2.23801 -5,5l0,190z" stroke-miterlimit="10" stroke-width="0.5" stroke="#231F20" fill="#0b5b95"/>
    </g>
    <g id="svg_43">
     <path id="svg_44" d="m31.05939,246.11291c0,2.20899 1.79098,4 4,4s4,-1.79101 4,-4l0,-192c0,-2.20901 -1.79102,-4 -4,-4s-4,1.79099 -4,4l0,192z" fill="#0b5b95"/>
     <path id="svg_45" d="m31.05939,246.11291c0,2.20899 1.79098,4 4,4s4,-1.79101 4,-4l0,-192c0,-2.20901 -1.79102,-4 -4,-4s-4,1.79099 -4,4l0,192z" stroke-miterlimit="10" stroke-width="0.5" stroke="#231F20" fill="#0b5b95"/>
    </g>
    <g id="svg_46">
     <path id="svg_47" d="m21.05939,247.11291c0,1.65699 1.34298,3 3,3s3,-1.34301 3,-3l0,-194c0,-1.65701 -1.34299,-3 -3,-3s-3,1.34299 -3,3l0,194z" fill="#0b5b95"/>
     <path id="svg_48" d="m21.05939,247.11291c0,1.65699 1.34298,3 3,3s3,-1.34301 3,-3l0,-194c0,-1.65701 -1.34299,-3 -3,-3s-3,1.34299 -3,3l0,194z" stroke-miterlimit="10" stroke-width="0.5" stroke="#231F20" fill="#0b5b95"/>
    </g>
    <g id="svg_49">
     <path id="svg_50" d="m13.3924,248.11291c0,1.10401 0.89599,2 2,2s2,-0.89599 2,-2l0,-196c0,-1.104 -0.896,-2 -2,-2s-2,0.896 -2,2l0,196z" fill="#0b5b95"/>
     <path id="svg_51" d="m13.3924,248.11291c0,1.10401 0.89599,2 2,2s2,-0.89599 2,-2l0,-196c0,-1.104 -0.896,-2 -2,-2s-2,0.896 -2,2l0,196z" stroke-miterlimit="10" stroke-width="0.5" stroke="#231F20" fill="#0b5b95"/>
    </g>
    <g id="svg_52">
     <path id="svg_53" d="m8.3924,249.11291c0,0.55301 0.44699,1 1,1s1,-0.44699 1,-1l0,-198c0,-0.553 -0.447,-1 -1,-1s-1,0.447 -1,1l0,198z" fill="#0b5b95"/>
     <path id="svg_54" d="m8.3924,249.11291c0,0.55301 0.44699,1 1,1s1,-0.44699 1,-1l0,-198c0,-0.553 -0.447,-1 -1,-1s-1,0.447 -1,1l0,198z" stroke-miterlimit="10" stroke-width="0.5" stroke="#231F20" fill="#0b5b95"/>
    </g>
    <line id="svg_55" y2="253.65592" x2="7.3924" y1="46.57292" x1="7.3924" stroke-miterlimit="10" stroke-width="0.5" stroke="#231F20" fill="#0b5b95"/>
    <g id="svg_56">
     <path id="svg_57" d="m61.7254,246.11291c0,2.20899 1.79102,4 4,4s4,-1.79101 4,-4l0,-192c0,-2.20901 -1.79098,-4 -4,-4s-4,1.79099 -4,4l0,192z" fill="#0b5b95"/>
     <path id="svg_58" d="m61.7254,246.11291c0,2.20899 1.79102,4 4,4s4,-1.79101 4,-4l0,-192c0,-2.20901 -1.79098,-4 -4,-4s-4,1.79099 -4,4l0,192z" stroke-miterlimit="10" stroke-width="0.5" stroke="#231F20" fill="#0b5b95"/>
    </g>
    <g id="svg_59">
     <path id="svg_60" d="m73.7254,247.11291c0,1.65699 1.34299,3 3,3s3,-1.34301 3,-3l0,-194c0,-1.65701 -1.34298,-3 -3,-3s-3,1.34299 -3,3l0,194z" fill="#0b5b95"/>
     <path id="svg_61" d="m73.7254,247.11291c0,1.65699 1.34299,3 3,3s3,-1.34301 3,-3l0,-194c0,-1.65701 -1.34298,-3 -3,-3s-3,1.34299 -3,3l0,194z" stroke-miterlimit="10" stroke-width="0.5" stroke="#231F20" fill="#0b5b95"/>
    </g>
    <g id="svg_62">
     <path id="svg_63" d="m83.3924,248.11291c0,1.10401 0.89599,2 2,2s2,-0.89599 2,-2l0,-196c0,-1.104 -0.896,-2 -2,-2s-2,0.896 -2,2l0,196z" fill="#0b5b95"/>
     <path id="svg_64" d="m83.3924,248.11291c0,1.10401 0.89599,2 2,2s2,-0.89599 2,-2l0,-196c0,-1.104 -0.896,-2 -2,-2s-2,0.896 -2,2l0,196z" stroke-miterlimit="10" stroke-width="0.5" stroke="#231F20" fill="#0b5b95"/>
    </g>
    <g id="svg_65">
     <path id="svg_66" d="m90.3924,249.11291c0,0.55301 0.44699,1 1,1s1,-0.44699 1,-1l0,-198c0,-0.553 -0.447,-1 -1,-1s-1,0.447 -1,1l0,198z" fill="#0b5b95"/>
     <path id="svg_67" d="m90.3924,249.11291c0,0.55301 0.44699,1 1,1s1,-0.44699 1,-1l0,-198c0,-0.553 -0.447,-1 -1,-1s-1,0.447 -1,1l0,198z" stroke-miterlimit="10" stroke-width="0.5" stroke="#231F20" fill="#0b5b95"/>
    </g>
    <line id="svg_68" y2="253.65592" x2="93.3924" y1="46.57292" x1="93.3924" stroke-miterlimit="10" stroke-width="0.5" stroke="#231F20" fill="#0b5b95"/>
   </g>
  </g>
 </g>
</svg>